<svg xmlns:xlink="http://www.w3.org/1999/xlink" xmlns="http://www.w3.org/2000/svg" width="65" height="33" viewBox="0 0 65 33" fill="none">
<path d="M0.132812 20.7524C1.69912 18.0148 9.91177 1.81963 10.5973 0.734375H10.6554C13.1652 4.78492 19.9231 17.6453 21.8612 20.6106L19.4374 22.2071C18.8681 21.1242 15.8447 15.2773 15.5309 14.8218L5.6358 15.2215C5.29419 15.763 2.95635 21.266 2.47065 22.2373L0.132812 20.7547V20.7524ZM14.6758 12.9952C14.362 12.3678 10.8553 5.72377 10.5694 5.26829C10.1418 5.89574 6.86281 12.8814 6.60486 13.3392L14.6758 12.9976V12.9952Z" fill="white"/>
<path d="M25.3711 21.9792C25.4292 21.1519 25.5128 16.3322 25.5128 13.081V10.0577C25.5128 7.57574 25.3711 2.10065 25.3711 1.44531H28.2225C28.1946 1.90312 28.0808 7.29222 28.0808 9.77182V12.851C28.0808 15.0471 28.1667 21.4331 28.2225 21.9769H25.3711V21.9792ZM38.3756 21.8073C38.0898 21.4075 29.5076 12.5675 28.2806 11.1987C28.7663 10.7432 36.9209 2.70021 37.5762 1.95889L39.2308 3.84125C38.1479 4.86841 32.9865 9.4883 31.4736 10.9988C32.3567 12.0818 39.1727 18.7537 40.258 19.8087L38.3756 21.8049V21.8073Z" fill="white"/>
<path d="M42.9688 20.7524C44.5374 18.0148 52.75 1.81731 53.4333 0.734375H53.4914C56.0012 4.78492 62.759 17.6453 64.6972 20.6106L62.2734 22.2071C61.704 21.1242 58.6806 15.2773 58.3669 14.8218L48.4717 15.2215C48.1301 15.763 45.79 21.266 45.3066 22.2373L42.9688 20.7547V20.7524ZM57.5117 12.9952C57.198 12.3678 53.6912 5.72377 53.4054 5.26829C52.9778 5.89574 49.6988 12.8814 49.4408 13.3392L57.5117 12.9976V12.9952Z" fill="white"/>
<path d="M0.0418301 28.6001C0.0418301 28.3515 0.0255629 26.9594 0 26.7852C0.439216 26.7852 0.820335 26.7921 1.14336 26.834C2.81656 26.9757 3.04895 27.6218 3.04895 28.0842C3.04895 28.4003 2.88396 28.9719 2.00552 29.3763V29.3926C2.5772 29.4832 3.3069 29.9387 3.3069 30.6846C3.3069 31.67 2.05665 32.6228 0.067393 32.6321H0C0.0418301 32.1766 0.0418301 29.6738 0.0418301 29.5157V28.5955V28.6001ZM0.755266 29.3298C1.66623 29.3043 2.27045 28.7488 2.27045 28.1958C2.27045 27.4498 1.32694 27.3336 0.755266 27.3173V29.3298ZM0.755266 32.0395C1.65926 31.9488 2.4796 31.5166 2.4796 30.7381C2.4796 30.1571 1.80102 29.7528 0.755266 29.8016V32.0395Z" fill="white"/>
<path d="M7.50768 32.6596C7.25902 32.6596 4.98857 32.5852 4.83984 32.5852C4.86541 32.2111 4.86541 30.7052 4.86541 30.5379V29.6014C4.86541 29.4852 4.84914 27.7864 4.83984 27.6539C5.02111 27.6539 6.9848 27.5447 7.35895 27.5215L7.39148 28.1187C7.06846 28.1187 5.70898 28.1513 5.58581 28.1513V29.8756C5.72757 29.8756 6.68734 29.8431 7.14282 29.8012L7.16839 30.4054C7.04522 30.4054 6.68734 30.3985 6.33876 30.3892C5.99947 30.3892 5.66715 30.3822 5.58581 30.3822V32.0554C5.76708 32.0554 6.77797 32.0717 7.48444 32.0298L7.51 32.6596H7.50768Z" fill="white"/>
<path d="M12.2335 32.5862C12.2753 32.3701 12.2823 29.9509 12.2823 28.6333V27.3993C11.3295 27.3993 10.1536 27.4411 9.9375 27.4737V26.7695C10.2698 26.8346 12.2335 26.8695 12.3241 26.8695H13.0445C13.2026 26.8695 15.0082 26.8369 15.3731 26.7695V27.4737C15.2569 27.4411 13.7255 27.3993 13.0283 27.3993V28.7658C13.0283 30.4483 13.1119 32.4189 13.1282 32.5862H12.2335Z" fill="white"/>
<path d="M16.0866 32.5852C16.1028 32.2785 16.1121 30.6308 16.1121 30.4472V29.685C16.1121 29.5595 16.0866 27.8212 16.0703 27.6562H16.8744C16.8581 27.7794 16.8326 29.2226 16.8326 29.3457V29.8593L20.0233 29.7268V29.197C20.0233 29.0808 20.007 27.8143 19.9977 27.6562H20.8018C20.7855 27.8212 20.7437 29.7268 20.7437 29.8942V30.5983C20.7437 30.6889 20.7599 32.4551 20.7762 32.5876H19.9814C20.007 32.3482 20.0233 31.0956 20.0233 30.9631V30.2497L16.8326 30.3822V30.8121C16.8326 31.1281 16.8581 32.4202 16.8651 32.5852H16.0866Z" fill="white"/>
<path d="M24.7381 32.6596C24.4895 32.6596 22.219 32.5852 22.0703 32.5852C22.0959 32.2111 22.0959 30.7052 22.0959 30.5379V29.6014C22.0959 29.4852 22.0796 27.7864 22.0703 27.6539C22.2516 27.6539 24.2153 27.5447 24.5894 27.5215L24.6219 28.1187C24.2989 28.1187 22.9394 28.1513 22.8163 28.1513V29.8756C22.958 29.8756 23.9178 29.8431 24.3733 29.8012L24.3989 30.4054C24.2757 30.4054 23.9178 30.3985 23.5692 30.3892C23.2299 30.3892 22.8976 30.3822 22.8163 30.3822V32.0554C22.9975 32.0554 24.0084 32.0717 24.7149 32.0298L24.7405 32.6596H24.7381Z" fill="white"/>
<path d="M32.3524 32.634C32.1037 32.6852 31.7226 32.7177 31.2253 32.7177C28.3995 32.7177 27.6953 31.0282 27.6953 30.266C27.6953 28.9065 28.9456 27.1752 31.8714 26.6523L31.9968 27.3495C30.0982 27.5656 28.5342 28.6997 28.5342 30.1242C28.5342 31.1351 29.329 32.0879 31.309 32.0879C31.6413 32.0879 31.9875 32.0368 32.2711 31.9717L32.3547 32.634H32.3524Z" fill="white"/>
<path d="M33.403 32.5852C33.4193 32.2785 33.4285 30.6308 33.4285 30.4472V29.685C33.4285 29.5595 33.403 27.8212 33.3867 27.6562H34.1908C34.1745 27.7794 34.149 29.2226 34.149 29.3457V29.8593L37.3397 29.7268V29.197C37.3397 29.0808 37.3234 27.8143 37.3141 27.6562H38.1182C38.1019 27.8212 38.0601 29.7268 38.0601 29.8942V30.5983C38.0601 30.6889 38.0763 32.4551 38.0926 32.5876H37.2978C37.3234 32.3482 37.3397 31.0956 37.3397 30.9631V30.2497L34.149 30.3822V30.8121C34.149 31.1281 34.1745 32.4202 34.1815 32.5852H33.403Z" fill="white"/>
<path d="M38.9336 32.3681C39.331 31.664 41.4852 27.6785 41.6526 27.4043H41.6688C42.3079 28.4059 44.0973 31.5803 44.5853 32.317L43.9137 32.7237C43.7812 32.4588 43.0027 31.0668 42.9284 30.9413L40.3674 31.0412C40.2675 31.2643 39.6889 32.4913 39.5727 32.7307L38.9336 32.3658V32.3681ZM42.6704 30.437C42.5868 30.279 41.7176 28.6894 41.6433 28.5732C41.5364 28.7382 40.716 30.4044 40.6486 30.5206L42.6704 30.437Z" fill="white"/>
<path d="M45.2031 32.5855C45.245 32.0557 45.4518 28.1027 45.4843 27.373H45.5261C45.7423 27.6054 49.1979 31.0843 49.428 31.3097C49.428 31.1099 49.4442 27.8541 49.4535 27.6217L50.1902 27.6542C50.1577 28.0772 50.0159 30.9588 49.9834 32.7343H49.9508C49.7347 32.5437 46.1071 28.9231 46.0142 28.8232H45.9979C46.0142 28.9556 45.9561 32.4019 45.9654 32.6343L45.2031 32.5855Z" fill="white"/>
<path d="M55.4314 31.4837C55.4314 31.7579 55.4477 32.3877 55.4477 32.4783C55.1084 32.6015 54.4112 32.7014 53.7815 32.7014C52.0734 32.7014 51.0625 31.8067 51.0625 30.6378C51.0625 29.8082 51.9409 28.2442 54.7087 27.5215L54.8574 28.1675C53.226 28.4743 51.834 29.527 51.834 30.6448C51.834 31.3815 52.4475 32.16 53.9395 32.16C54.2555 32.16 54.5693 32.1181 54.718 32.06V30.9167C54.718 30.7099 54.7017 30.4682 54.6924 30.4287H55.4291V31.4814L55.4314 31.4837Z" fill="white"/>
<path d="M59.4647 32.6596C59.216 32.6596 56.9456 32.5852 56.7969 32.5852C56.8224 32.2111 56.8224 30.7052 56.8224 30.5379V29.6014C56.8224 29.4852 56.8062 27.7864 56.7969 27.6539C56.9805 27.6539 58.9442 27.5447 59.316 27.5215L59.3485 28.1187C59.0255 28.1187 57.666 28.1513 57.5428 28.1513V29.8756C57.6823 29.8756 58.6444 29.8431 59.0999 29.8012L59.1254 30.4054C59.0022 30.4054 58.6444 30.3985 58.2958 30.3892C57.9565 30.3892 57.6242 30.3822 57.5428 30.3822V32.0554C57.7241 32.0554 58.735 32.0717 59.4391 32.0298L59.4647 32.6596Z" fill="white"/>
<path d="M62.4899 27.558H61.881V29.4682H61.5464V27.558H60.9375V27.2559H62.4899V27.558Z" fill="white"/>
<path d="M64.8224 29.4682H64.4878V27.9925L63.9789 29.0685H63.7325L63.2096 27.9879V29.4682H62.875V27.2559H63.2096L63.8557 28.6316L64.4901 27.2559H64.8248V29.4682H64.8224Z" fill="white"/>
</svg>